# xmcd CD database file
#
# Track frame offsets:
#	150
#	13090
#	24407
#	45907
#	60486
#	75867
#	92703
#	108786
#	131591
#	143940
#
# Disc length: 2172 seconds
#
# Revision: 0
# Processed by: cddbd v1.5.2PL0 Copyright (c) Steve Scherf et al.
# Submitted via: CDex 1.51
#
DISCID=6d087a0a
DTITLE=Erik Lindeborg - Salonul magic
DYEAR=2012
DGENRE=Jazz
TTITLE0=Salonul magic part I
TTITLE1=Part II
TTITLE2=Part III
TTITLE3=Part IV
TTITLE4=Part V
TTITLE5=Part VI
TTITLE6=Part VII
TTITLE7=Part VIII
TTITLE8=Part IX
TTITLE9=Part X
EXTD=YEAR: 2012
EXTT0=
EXTT1=
EXTT2=
EXTT3=
EXTT4=
EXTT5=
EXTT6=
EXTT7=
EXTT8=
EXTT9=
PLAYORDER=
